<?xml version="1.0" encoding="utf-8"?>
<!-- Generator: Adobe Illustrator 16.0.0, SVG Export Plug-In . SVG Version: 6.00 Build 0)  -->
<!DOCTYPE svg PUBLIC "-//W3C//DTD SVG 1.1//EN" "http://www.w3.org/Graphics/SVG/1.1/DTD/svg11.dtd">
<svg version="1.1" id="Layer_1" xmlns="http://www.w3.org/2000/svg" xmlns:xlink="http://www.w3.org/1999/xlink" x="0px" y="0px"
	 width="40px" height="40px" viewBox="0 0 40 40" enable-background="new 0 0 40 40" xml:space="preserve">
<g>
	<g transform="matrix( 1, 0, 0, 1, 0,0) ">
		<g>
			<g id="Layer0_37_FILL">
				<path fill="#EA184E" d="M12.4,22.101c0.167-0.834,0.567-1.518,1.2-2.051c0.633-0.5,1.316-0.717,2.05-0.649h0.4
					c0.267,0.066,0.45-0.067,0.55-0.4c0.033-0.333-0.1-0.533-0.4-0.6l-0.4-0.05c-1-0.101-1.9,0.199-2.7,0.899
					c-0.833,0.634-1.383,1.5-1.65,2.601c-0.033,0.333,0.1,0.55,0.4,0.649C12.15,22.533,12.333,22.4,12.4,22.101z"/>
				<path fill="#FFFFFF" d="M27.949,10.3c-0.299,0.301-0.482,0.667-0.549,1.101c0,0.433,0.133,0.8,0.4,1.1L28,12.851L22,18l0.4,0.4
					c0.299,0.3,0.549,0.767,0.75,1.399l6.35-5.449l0.25,0.3c0.301,0.267,0.633,0.417,1,0.45c0.434,0.066,0.801-0.051,1.1-0.351
					c0.367-0.267,0.566-0.633,0.6-1.1c0.035-0.467-0.1-0.851-0.398-1.15c-0.234-0.333-0.566-0.517-1-0.55H30.5V11.5
					c0-0.399-0.133-0.75-0.4-1.05c-0.266-0.3-0.6-0.467-1-0.5S28.316,10.033,27.949,10.3z"/>
			</g>
		</g>
	</g>
	<g transform="matrix( 1, 0, 0, 1, 0,0) ">
		<g>
			<g id="Layer0_37_MEMBER_0_FILL">
				<path fill="#EA184E" d="M27.15,1.25C24.949,0.417,22.566,0,20,0c-2.533,0-4.899,0.417-7.1,1.25c-2.6,0.967-4.95,2.5-7.05,4.601
					C1.95,9.75,0,14.467,0,20s1.95,10.233,5.85,14.101C9.783,38.033,14.5,40,20,40c5.534,0,10.25-1.967,14.151-5.899
					C38.051,30.233,40,25.533,40,20S38.051,9.75,34.15,5.851C32.051,3.75,29.717,2.217,27.15,1.25 M18.05,16.25
					c1.233,0.067,2.333,0.467,3.3,1.2L26.9,12.7c-0.268-0.467-0.367-0.934-0.301-1.4c0.033-0.633,0.316-1.183,0.85-1.649
					c0.5-0.4,1.068-0.583,1.701-0.55c0.699,0.066,1.232,0.35,1.6,0.85c0.301,0.333,0.484,0.733,0.551,1.2
					c0.566,0.1,1.016,0.366,1.35,0.8c0.467,0.533,0.666,1.117,0.6,1.75c-0.033,0.667-0.316,1.217-0.85,1.65
					c-0.5,0.433-1.066,0.633-1.701,0.6c-0.5-0.066-0.916-0.233-1.25-0.5l-6.1,5.25c0.168,1.333,0.051,2.867-0.35,4.6
					c-0.4,1.634-0.916,2.867-1.551,3.7c-0.733,1.033-1.417,1.783-2.049,2.25c-0.867,0.667-1.783,0.967-2.75,0.9
					c-0.767-0.067-1.5-0.317-2.2-0.75C13.417,30.833,12.2,29.8,10.8,28.3c-1.3-1.433-1.917-3.316-1.85-5.649
					c0.067-2.467,1-4.117,2.8-4.95c1.7-0.833,3.35-1.316,4.95-1.45C17.167,16.184,17.617,16.184,18.05,16.25z"/>
				<path fill="#FFFFFF" d="M21.35,17.45c-0.966-0.733-2.066-1.133-3.3-1.2c-0.433-0.066-0.883-0.066-1.35,0
					c-1.6,0.134-3.25,0.617-4.95,1.45c-1.8,0.833-2.733,2.483-2.8,4.95C8.883,24.983,9.5,26.867,10.8,28.3
					c1.4,1.5,2.617,2.533,3.65,3.101c0.7,0.433,1.434,0.683,2.2,0.75c0.967,0.066,1.883-0.233,2.75-0.9
					c0.633-0.467,1.316-1.217,2.049-2.25c0.635-0.833,1.15-2.066,1.551-3.7c0.4-1.732,0.518-3.267,0.35-4.6l6.1-5.25
					c0.334,0.267,0.75,0.434,1.25,0.5c0.635,0.033,1.201-0.167,1.701-0.6c0.533-0.434,0.816-0.983,0.85-1.65
					c0.066-0.633-0.133-1.217-0.6-1.75c-0.334-0.434-0.783-0.7-1.35-0.8c-0.066-0.467-0.25-0.867-0.551-1.2
					c-0.367-0.5-0.9-0.783-1.6-0.85c-0.633-0.033-1.201,0.149-1.701,0.55c-0.533,0.467-0.816,1.017-0.85,1.649
					c-0.066,0.467,0.033,0.934,0.301,1.4L21.35,17.45 M29.1,9.95c0.4,0.033,0.734,0.2,1,0.5c0.268,0.3,0.4,0.65,0.4,1.05v0.45h0.551
					c0.434,0.033,0.766,0.217,1,0.55c0.299,0.3,0.434,0.684,0.398,1.15c-0.033,0.467-0.232,0.833-0.6,1.1
					c-0.299,0.3-0.666,0.417-1.1,0.351c-0.367-0.033-0.699-0.184-1-0.45l-0.25-0.3L23.15,19.8c-0.201-0.633-0.451-1.1-0.75-1.399
					L22,18l6-5.149L27.801,12.5c-0.268-0.3-0.4-0.667-0.4-1.1c0.066-0.434,0.25-0.8,0.549-1.101
					C28.316,10.033,28.699,9.917,29.1,9.95 M13.6,20.05c-0.633,0.533-1.034,1.217-1.2,2.051c-0.067,0.3-0.25,0.433-0.55,0.399
					c-0.3-0.1-0.434-0.316-0.4-0.649c0.267-1.101,0.817-1.967,1.65-2.601c0.8-0.7,1.7-1,2.7-0.899l0.4,0.05
					c0.3,0.066,0.434,0.267,0.4,0.6c-0.1,0.333-0.284,0.467-0.55,0.4h-0.4C14.917,19.333,14.233,19.55,13.6,20.05z"/>
			</g>
		</g>
	</g>
</g>
</svg>
